# xmcd
# Copyright (C) 1995-1998 Ti Kan
#
# Track frame offsets:
#       150
#       14340
#       30250
#       57708
#       84623
#       106228
#       123248
#       172788
#       201053
#       235833
#       258730
#
# Disc length: 3756 seconds
#
# Revision: 1
# Processed by: cddbd v1.5.2PL0 Copyright (c) Steve Scherf et al.
# Submitted via: CD-Import v1.0
#
DISCID=880eaa0b
DTITLE=Astor Piazzolla - Piazzolla and El Conjunto Electronico
DYEAR=76
DGENRE=
TTITLE0=Libertango
TTITLE1=Amelitango
TTITLE2=L'evasion
TTITLE3=Buenos Aires Hara Cero
TTITLE4=Anos De Soledad
TTITLE5=Los Pajaros Perdidos
TTITLE6=Bandoneon
TTITLE7=Zita
TTITLE8=Adios Nonino
TTITLE9=Balada Para Mi Muerte
TTITLE10=Balada Para Un Loco
EXTD=
EXTT0=
EXTT1=
EXTT2=
EXTT3=
EXTT4=
EXTT5=
EXTT6=
EXTT7=
EXTT8=
EXTT9=
EXTT10=
PLAYORDER=
